PathFileType	4	(X/Y/Z)	Kaydara	
DataRate	CameraRate	NumFrames	NumMarkers	Units	OrigDataRate	OrigDataStartFrame	OrigNumFrames	
60.00	60.00	4	74	mm	60.00	206	96	
Frame#	Time	Z_lasi			Z_rasi			Z_rpsi			Z_lpsi			Z_fneck			Z_bneck			Z_fhead			Z_rhead			Z_lhead			Z_rshld			Z_relbtop			Z_relbext			Z_relblow			Z_rwrext			Z_rwrtop			Z_rwrlow			Z_lshld			Z_lelbext			Z_lelblow			Z_lelbtop			Z_lwrext			Z_lwrtop			Z_lwrlow			Z_rtopleg			Z_ltopleg			Z_rkneefr			Z_rkneebk			Z_rkneeis			Z_lkneefr			Z_lknssbk			Z_lkneeis			Z_rankfr			Z_rankis			Z_rankbk			Z_lankfr			Z_lankbk			Z_lankis			A_lasi			A_rasi			A_rpsi			A_lpsi			A_fneck			A_bneck			A_fhead			A_rhead			A_lhead			A_rshld			A_relbtop			A_relbext			A_relblow			A_rwrext			A_rwrtop			A_rwrlow			A_lshld			A_lelbext			A_lelblow			A_lelbtop			A_lwrext			A_lwrtop			A_lwrlow			A_rtopleg			A_ltopleg			A_rkneefr			A_rkneebk			A_rkneeis			A_lkneefr			A_lknssbk			A_lkneeis			A_rankfr			A_rankis			A_rankbk			A_lankfr			A_lankbk			A_lankis			
		X1	Y1	Z1	X2	Y2	Z2	X3	Y3	Z3	X4	Y4	Z4	X5	Y5	Z5	X6	Y6	Z6	X7	Y7	Z7	X8	Y8	Z8	X9	Y9	Z9	X10	Y10	Z10	X11	Y11	Z11	X12	Y12	Z12	X13	Y13	Z13	X14	Y14	Z14	X15	Y15	Z15	X16	Y16	Z16	X17	Y17	Z17	X18	Y18	Z18	X19	Y19	Z19	X20	Y20	Z20	X21	Y21	Z21	X22	Y22	Z22	X23	Y23	Z23	X24	Y24	Z24	X25	Y25	Z25	X26	Y26	Z26	X27	Y27	Z27	X28	Y28	Z28	X29	Y29	Z29	X30	Y30	Z30	X31	Y31	Z31	X32	Y32	Z32	X33	Y33	Z33	X34	Y34	Z34	X35	Y35	Z35	X36	Y36	Z36	X37	Y37	Z37	X38	Y38	Z38	X39	Y39	Z39	X40	Y40	Z40	X41	Y41	Z41	X42	Y42	Z42	X43	Y43	Z43	X44	Y44	Z44	X45	Y45	Z45	X46	Y46	Z46	X47	Y47	Z47	X48	Y48	Z48	X49	Y49	Z49	X50	Y50	Z50	X51	Y51	Z51	X52	Y52	Z52	X53	Y53	Z53	X54	Y54	Z54	X55	Y55	Z55	X56	Y56	Z56	X57	Y57	Z57	X58	Y58	Z58	X59	Y59	Z59	X60	Y60	Z60	X61	Y61	Z61	X62	Y62	Z62	X63	Y63	Z63	X64	Y64	Z64	X65	Y65	Z65	X66	Y66	Z66	X67	Y67	Z67	X68	Y68	Z68	X69	Y69	Z69	X70	Y70	Z70	X71	Y71	Z71	X72	Y72	Z72	X73	Y73	Z73	X74	Y74	Z74	

1	3.417	-232.03117	1078.58810	629.58691	-312.46964	1080.39268	435.07263	-144.34649	1110.46982	335.07843	-48.50020	1097.61436	563.91457	-241.41249	1453.16467	491.47518	-124.74897	1504.50470	470.19596	-303.81678	1665.69565	451.95045	-154.20584	1638.09967	379.78172	-151.55352	1648.98453	527.24678	-219.96506	1435.90149	289.58792	-309.20033	1126.24817	223.68313	-294.32795	1108.75648	283.47239	-342.95353	1193.27431	261.00576	-533.93108	1136.05995	352.36614	-517.49115	1175.01808	370.95036	-498.63281	1155.31044	406.74248	-103.77626	1461.03485	654.73915	-49.75810	1149.20029	680.01404	-96.50540	1177.87125	754.55276	-27.97412	1178.52478	743.07983	-133.13840	914.12582	790.44830	-116.33981	916.48605	834.51576	-72.22446	917.14752	821.13396	-195.93994	923.47244	299.33435	-134.85990	891.40396	663.35648	-270.53680	425.37361	393.94459	-204.49726	444.64806	335.48805	-198.26576	435.38967	459.17351	-215.25429	446.02440	697.77138	-119.72933	494.63375	680.20203	-206.63389	443.96355	602.22633	-252.92933	179.74253	391.33095	-224.94221	179.13288	451.88999	-178.68542	164.80015	378.84090	-18.91539	213.97547	662.77023	29.30541	251.62786	611.19465	-42.40630	220.09604	594.87865	-1217.62062	1021.03195	452.48604	-1199.83681	1032.75085	610.93365	-1357.78412	1024.26353	637.66747	-1340.85541	1022.75497	454.03309	-1282.01309	1367.56683	565.37834	-1420.57083	1392.38190	561.93554	-1227.67960	1575.98587	568.12157	-1364.03229	1542.45087	667.72713	-1382.45087	1543.39554	505.26550	-1362.44110	1329.58740	739.63303	-1276.19896	1075.63332	765.63881	-1301.34903	1025.50270	733.47160	-1251.89713	1083.69888	715.12070	-1100.06912	1172.56004	796.90536	-1122.03979	1203.09669	770.56267	-1103.63220	1182.76413	741.07864	-1326.07635	1354.74945	388.13622	-1352.32483	1043.47679	371.37978	-1282.10938	1053.15285	373.86974	-1319.35059	1051.40846	334.78668	-1265.18517	824.44016	355.17632	-1279.62326	826.95694	314.48761	-1235.01205	835.76767	311.09747	-1274.52477	871.69205	726.25381	-1277.47925	867.09526	384.88892	-1125.36514	466.82739	624.59461	-1230.40855	470.23048	683.93166	-1228.45322	471.39153	565.89638	-1262.40685	446.58913	517.33742	-1358.24783	468.68198	431.67248	-1363.44925	471.74477	557.10857	-1123.07777	169.11827	654.06342	-1163.89732	157.26938	594.13246	-1199.44969	139.58487	668.38676	-1419.08783	161.32048	463.93845	-1479.03534	183.90644	434.20948	-1467.17255	183.07470	524.30054 
2	3.433	-234.38202	1078.38829	628.12267	-317.27894	1080.10429	434.42120	-149.88926	1110.12794	332.22843	-51.75419	1097.32025	560.19974	-245.94931	1452.25769	488.54458	-129.98121	1504.37790	465.80383	-310.95598	1664.09912	449.30908	-162.04187	1637.65930	375.32005	-157.56343	1649.00024	522.70828	-227.06821	1434.81049	286.74763	-317.95353	1125.56297	222.19698	-302.52111	1108.01743	281.88713	-351.10775	1192.79976	260.05159	-540.99014	1136.14235	354.16080	-524.46960	1175.53146	371.92860	-503.97663	1156.93420	407.22775	-106.09621	1461.19965	650.10696	-51.19349	1149.51889	675.07988	-96.29970	1178.45726	750.98518	-27.72444	1179.08661	737.35306	-131.35094	914.55818	788.15155	-113.20230	917.09328	831.70120	-69.46668	917.93007	817.25029	-201.67427	923.24799	297.33805	-138.18235	891.48514	661.44226	-272.84077	425.12997	393.80745	-207.42640	444.46747	334.53949	-200.92825	435.94238	459.02596	-224.50642	447.31720	698.58147	-129.10450	495.74516	681.28403	-216.10006	445.33314	602.83222	-254.10418	179.48082	391.56536	-225.54434	179.18692	451.94405	-179.72261	164.76765	378.51204	-26.26593	216.51432	661.88171	21.07484	254.61973	609.72229	-50.45784	222.74574	593.95988	-1210.60959	1021.63170	454.82712	-1191.18599	1033.48488	613.28259	-1348.20587	1025.02357	642.01118	-1333.71048	1023.11050	458.34927	-1273.57872	1368.43765	567.65812	-1412.34009	1392.51007	564.55479	-1221.54297	1577.44644	569.84348	-1357.79175	1543.14331	669.75670	-1376.05362	1543.64853	507.15446	-1352.32605	1330.64606	742.75215	-1267.36572	1075.38353	767.66541	-1293.80692	1026.25153	735.38887	-1243.37051	1083.73230	717.43324	-1087.43797	1166.68793	798.70804	-1108.90335	1199.52629	774.68964	-1093.17749	1179.37172	743.67523	-1318.15308	1355.19211	391.01242	-1344.79233	1043.96011	373.91136	-1274.55238	1053.94165	376.25195	-1311.95740	1052.06726	337.15389	-1257.18544	825.28549	357.23495	-1271.87630	827.70729	316.34581	-1227.28058	836.48476	312.97483	-1263.86719	872.54860	729.92264	-1270.92194	867.61063	388.54778	-1121.66168	465.92297	626.70074	-1226.56662	470.80887	686.09299	-1224.70940	472.31640	568.13828	-1248.35510	445.74806	518.60435	-1346.61621	468.51467	435.56717	-1348.66318	470.33764	560.78655	-1121.99547	168.57061	654.68201	-1162.80945	157.32890	594.62757	-1198.65631	139.60086	668.59978	-1413.91800	163.38963	464.43890	-1473.66104	188.03341	435.98000	-1460.38773	185.53333	525.79048 
3	3.450	-236.79497	1078.50731	626.91551	-321.92715	1079.95445	434.10492	-155.47061	1109.81979	329.71798	-54.96161	1097.28874	556.71204	-250.46755	1451.75797	486.08807	-134.99207	1504.44336	461.80580	-317.79833	1662.69394	446.87531	-169.61962	1637.38251	370.98747	-163.54111	1649.45633	518.33195	-233.78498	1433.81241	284.26718	-326.18587	1124.85237	221.21964	-309.89218	1107.27203	280.68012	-358.69698	1192.19101	259.51508	-547.53605	1136.32446	356.08067	-530.65582	1175.90981	373.31173	-508.77510	1158.16093	409.27734	-107.89125	1461.68442	645.76576	-52.30718	1150.11978	670.16655	-96.14676	1179.20303	747.26784	-27.64295	1179.73106	731.89980	-130.04416	915.31609	785.86136	-110.89938	918.07350	828.97881	-67.30993	918.80882	813.34846	-207.07266	923.08205	295.84482	-141.51474	891.86607	659.82719	-275.02092	424.87255	393.79005	-209.96592	444.34753	333.90354	-202.42506	436.15551	458.37189	-232.48110	448.76656	698.44681	-137.26471	496.76575	680.59761	-225.01390	446.74591	602.61345	-254.91068	179.16727	391.77937	-225.99651	179.12996	452.04853	-180.67110	164.82412	378.37193	-34.19208	218.15111	660.77263	12.57335	255.95871	607.38510	-59.26278	224.04140	593.02757	-1203.65746	1021.95404	457.32822	-1182.81784	1034.01855	615.74768	-1339.07562	1025.66399	646.39755	-1326.66580	1023.34045	462.58396	-1265.45204	1369.09454	569.98711	-1404.53537	1392.49084	567.21966	-1215.32494	1578.41263	571.56311	-1351.46515	1543.81378	671.55678	-1369.69849	1543.76083	508.97308	-1342.16721	1331.69083	745.90965	-1257.80159	1075.39711	769.62601	-1285.41061	1027.05482	737.33635	-1234.05777	1084.04449	719.50089	-1073.99300	1160.62637	799.71977	-1094.62784	1195.48943	778.35915	-1081.58165	1176.11366	746.05080	-1311.03424	1355.18890	393.74817	-1337.22992	1043.78448	376.32004	-1267.14188	1054.19235	378.69785	-1304.41940	1052.23602	339.54121	-1248.85887	825.97420	359.01421	-1263.42361	828.10722	318.24514	-1219.06616	837.09557	314.70753	-1253.79936	873.33115	733.56575	-1264.41788	867.91046	392.19826	-1118.20969	465.30552	629.15825	-1222.76176	471.37356	688.12515	-1220.86739	473.38375	570.23010	-1233.28018	444.87907	518.93192	-1333.98956	467.82085	439.08268	-1332.82959	468.45333	563.83537	-1120.92857	168.12384	655.36415	-1161.77475	157.59866	595.15182	-1197.88696	139.74340	668.86086	-1408.33405	165.53383	464.76337	-1467.61581	192.38379	437.55718	-1453.12271	188.31242	527.19002 
4	3.467	-239.23414	1079.08890	625.78991	-326.20461	1079.93996	433.90545	-160.84301	1109.70924	327.46696	-58.19585	1097.60986	553.50300	-254.60018	1451.53671	483.92952	-139.80368	1504.89075	458.07770	-324.44298	1661.52878	444.47521	-176.90962	1637.31720	366.89781	-169.12888	1650.25833	514.24797	-240.11131	1433.00430	281.93106	-333.96702	1124.17542	220.75417	-316.25992	1106.73744	279.25039	-365.58243	1191.58401	259.32272	-553.38531	1136.80710	358.42232	-536.33690	1176.65604	374.90623	-512.19063	1159.40773	414.00700	-109.55943	1462.37610	641.64894	-53.38109	1150.86014	665.54039	-95.91180	1180.03433	743.43849	-27.39161	1180.66055	726.78123	-129.24846	916.62025	783.54088	-109.01041	919.28192	826.18141	-65.82324	919.70963	809.41620	-212.10068	922.88246	294.53293	-144.74172	892.46376	658.32916	-276.75861	424.60926	393.65368	-212.24386	444.37096	333.55217	-204.33828	436.40255	458.05656	-239.70833	450.29388	697.66220	-144.14192	497.49420	678.29376	-232.66195	448.11646	601.71986	-255.71211	178.95027	391.94386	-226.70715	179.19741	452.16942	-181.32324	164.94322	378.23326	-42.24606	218.40406	659.43764	3.66344	255.26567	604.95220	-68.54934	223.77583	592.22557	-1196.81252	1022.18430	460.10445	-1174.38416	1034.47128	618.20148	-1330.13031	1026.10962	650.47096	-1319.83582	1023.47031	466.46046	-1257.63046	1369.60526	572.23980	-1397.10236	1392.49359	570.09651	-1209.01047	1579.10507	573.33405	-1345.21332	1544.50821	673.43254	-1363.16116	1543.71414	510.73925	-1331.93939	1332.73773	749.09859	-1247.63321	1075.63255	771.76956	-1276.42883	1028.02101	739.52896	-1224.52980	1084.33777	721.64665	-1059.39049	1154.34143	799.78607	-1079.21371	1191.20850	781.08994	-1069.42184	1172.93213	746.12961	-1304.60876	1354.65256	396.55823	-1329.61075	1043.21716	378.72971	-1259.66637	1053.86307	381.06895	-1297.11792	1052.02103	341.86974	-1239.82872	826.23642	360.89939	-1254.56947	828.11211	320.20802	-1210.09415	837.35130	316.54148	-1244.34166	873.90938	737.00241	-1257.94601	868.04131	395.65022	-1114.88121	464.78325	631.80347	-1219.34189	471.99284	690.54245	-1216.93222	474.32106	572.48680	-1217.61070	443.65582	518.55915	-1320.42511	466.87599	441.77555	-1316.22360	466.28178	566.21620	-1119.87625	167.73363	656.39877	-1160.64369	157.98403	595.87074	-1197.06642	139.89441	669.37103	-1401.96320	167.80447	464.91085	-1460.74463	196.92951	438.98842	-1444.79919	191.24863	528.20839 
